
		<svg xmlns="http://www.w3.org/2000/svg" xmlns:xlink="http://www.w3.org/1999/xlink" version="1.1" width="3225.563909774436" height="2120.3007518796994">
			<rect fill="#102857" width="3225.563909774436" height="2120.3007518796994"/>
			<g transform="scale(11.278195488721805) translate(10, 10)">
				<defs id="SvgjsDefs1009"/><g id="main_text" rel="mainfill" name="main_text" feature="main_text" xmlns:name="mainText_mainfill" groupName="main_text" fill="#3592d5" transform="translate(-2.0455777534597828, 111.91709564855924) scale(2.7642238685868263)"><path d="M5.2778 13.5852 c-2.774 -0.64318 -4.1606 -1.833 -4.1592 -3.5694 c0.0009375 -1.2772 0.44806 -2.2326 1.3414 -2.8658 s1.9433 -0.95 3.15 -0.95 c2.644 0 4.2146 0.98666 4.7116 2.96 l-1.5143 0 c-0.27142 -1.1733 -1.3372 -1.76 -3.1972 -1.76 c-1.3133 0 -2.2308 0.38954 -2.7526 1.1687 c-0.1982 0.28756 -0.29632 0.65396 -0.29438 1.0992 c-0.0036328 0.83254 0.44954 1.4776 1.3595 1.9351 c0.42812 0.2272 1.3347 0.5202 2.7198 0.87896 s2.39 0.75912 3.0146 1.2011 c0.8687 0.61138 1.304 1.4737 1.306 2.587 c-0.0019531 1.3667 -0.543 2.4006 -1.6232 3.1016 c-0.9065 0.59228 -2.027 0.88844 -3.3618 0.88844 c-3.012 0 -4.758 -1.1467 -5.238 -3.44 l1.6551 0 c0.2566 1.44 1.4513 2.16 3.584 2.16 c1.5206 0 2.5834 -0.42278 3.1882 -1.2683 c0.23506 -0.3278 0.3526 -0.77502 0.3526 -1.3417 s-0.21898 -1.0272 -0.65696 -1.3817 c-0.62872 -0.51292 -1.8238 -0.9806 -3.5852 -1.403 z M14.38 13.2546 l3.16 0 c0.7809 0 1.4276 -0.26334 1.94 -0.79 c0.52 -0.53444 0.78 -1.203 0.78 -2.0058 c0 -0.80278 -0.24666 -1.4575 -0.74 -1.9642 s-1.1533 -0.76 -1.98 -0.76 l-3.16 0 l0 5.52 z M21.66 10.4946 c0 1.1907 -0.42334 2.1808 -1.27 2.97 c-0.82242 0.76666 -1.8391 1.15 -3.05 1.15 l-2.96 0 l0 5.38 l-1.4 0 l0 -13.6 l4.36 0 c1.203 0 2.2196 0.38 3.05 1.14 c0.84666 0.7749 1.27 1.7616 1.27 2.96 z M35.540000000000006 13.16 c0 -1.5333 -0.54666 -2.8466 -1.64 -3.94 s-2.4134 -1.64 -3.96 -1.64 c-1.5333 0 -2.8466 0.54666 -3.94 1.64 s-1.64 2.4066 -1.64 3.94 c0 1.5467 0.54666 2.8666 1.64 3.96 s2.4066 1.64 3.94 1.64 c1.5467 0 2.8666 -0.54666 3.96 -1.64 s1.64 -2.4134 1.64 -3.96 z M36.940000000000005 13.16 c0 0.96 -0.18334 1.8667 -0.55 2.72 s-0.86666 1.5967 -1.5 2.23 s-1.3767 1.1333 -2.23 1.5 s-1.76 0.55 -2.72 0.55 s-1.8633 -0.18334 -2.71 -0.55 s-1.5867 -0.86666 -2.22 -1.5 s-1.1333 -1.3767 -1.5 -2.23 s-0.55 -1.76 -0.55 -2.72 s0.18334 -1.8667 0.55 -2.72 s0.86666 -1.5933 1.5 -2.22 s1.3733 -1.1233 2.22 -1.49 s1.75 -0.55 2.71 -0.55 s1.8667 0.18334 2.72 0.55 s1.5967 0.86332 2.23 1.49 s1.1333 1.3667 1.5 2.22 s0.55 1.76 0.55 2.72 z M38.24 7.66 l0 -1.3 l3.3 0 l1.4 0 l3.3 0 l0 1.3 l-3.3 0 l0 12.3 l-1.4 0 l0 -12.3 l-3.3 0 z M60.620000000000005 15.84 c-0.50468 1.3015 -1.3313 2.3516 -2.48 3.15 c-1.1605 0.80666 -2.4338 1.21 -3.82 1.21 c-1.8845 0 -3.4912 -0.69334 -4.82 -2.08 c-1.3067 -1.3635 -1.96 -2.9968 -1.96 -4.9 c0 -0.94666 0.17334 -1.8433 0.52 -2.69 s0.82666 -1.59 1.44 -2.23 c1.3289 -1.3867 2.9356 -2.08 4.82 -2.08 c1.3921 0 2.6588 0.39666 3.8 1.19 c1.1414 0.79344 1.9681 1.8368 2.48 3.13 l-1.54 0 c-0.73576 -1.3489 -1.8324 -2.2388 -3.29 -2.67 c-0.47334 -0.14 -1.0233 -0.21 -1.65 -0.21 s-1.2667 0.15 -1.92 0.45 s-1.2233 0.70334 -1.71 1.21 c-1.0333 1.0758 -1.55 2.3758 -1.55 3.9 c0 1.5109 0.51666 2.8042 1.55 3.88 c1.063 1.1067 2.3396 1.66 3.83 1.66 c1.0133 0 1.9433 -0.26666 2.79 -0.8 s1.5033 -1.24 1.97 -2.12 l1.54 0 z M64.12 20 l-1.4 0 l0 -13.6 l1.4 0 l0 6.12 l6.18 0 l0 -6.12 l1.4 0 l0 13.6 l-1.4 0 l0 -6.08 l-6.18 0 l0 6.08 z M87.18 15.84 c-0.50468 1.3015 -1.3313 2.3516 -2.48 3.15 c-1.1605 0.80666 -2.4338 1.21 -3.82 1.21 c-1.8845 0 -3.4912 -0.69334 -4.82 -2.08 c-1.3067 -1.3635 -1.96 -2.9968 -1.96 -4.9 c0 -0.94666 0.17334 -1.8433 0.52 -2.69 s0.82666 -1.59 1.44 -2.23 c1.3289 -1.3867 2.9356 -2.08 4.82 -2.08 c1.3921 0 2.6588 0.39666 3.8 1.19 c1.1414 0.79344 1.9681 1.8368 2.48 3.13 l-1.54 0 c-0.73576 -1.3489 -1.8324 -2.2388 -3.29 -2.67 c-0.47334 -0.14 -1.0233 -0.21 -1.65 -0.21 s-1.2667 0.15 -1.92 0.45 s-1.2233 0.70334 -1.71 1.21 c-1.0333 1.0758 -1.55 2.3758 -1.55 3.9 c0 1.5109 0.51666 2.8042 1.55 3.88 c1.063 1.1067 2.3396 1.66 3.83 1.66 c1.0133 0 1.9433 -0.26666 2.79 -0.8 s1.5033 -1.24 1.97 -2.12 l1.54 0 z M90.68 20 l-1.4 0 l0 -13.6 l1.4 0 l0 6.382 l4.58 -6.382 l1.8 0 l-5 6.8 l5 6.8 l-1.8 0 l-4.58 -6.382 l0 6.382 z"/></g><g id="SvgjsG1011" rel="mainfill" name="symbol" feature="symbol" xmlns:name="symbol_mainfill" fill="#3592d5" transform="translate(83.92703548734602, 9.850715835818333) scale(0.7661894427877785)"><path style="" d="M 99 1.5 C 83.8 1.5 71.5 13.8 71.5 29 C 71.5 43.3 82.5 55.100391 96.5 56.400391 L 96.5 121.5 L 72.099609 121.5 C 70.699609 121.5 69.599609 122.6 69.599609 124 C 69.599609 125.4 70.699609 126.5 72.099609 126.5 L 124 126.5 C 125.4 126.5 126.5 125.4 126.5 124 C 126.5 122.6 125.4 121.5 124 121.5 L 101.5 121.5 L 101.5 56.400391 C 115.5 55.100391 126.5 43.3 126.5 29 C 126.5 13.8 114.2 1.5 99 1.5 z M 99 6.5 C 111.4 6.5 121.5 16.6 121.5 29 C 121.5 41.4 111.4 51.5 99 51.5 C 86.6 51.5 76.5 41.4 76.5 29 C 76.5 16.6 86.6 6.5 99 6.5 z M 84 26.5 C 82.6 26.5 81.5 27.6 81.5 29 C 81.5 30.4 82.6 31.5 84 31.5 L 114 31.5 C 115.4 31.5 116.5 30.4 116.5 29 C 116.5 27.6 115.4 26.5 114 26.5 L 84 26.5 z M 3.9003906 34 C 2.5003906 34 1.4003906 35.1 1.4003906 36.5 C 1.4003906 37.9 2.5003906 39 3.9003906 39 C 11.400391 39 18.900781 39.599219 26.300781 40.699219 L 35 42.099609 C 38.8 42.699609 42 45.500781 43 49.300781 L 43 49.400391 L 49.099609 68.599609 C 48.299609 68.399609 47.499219 68.199609 46.699219 68.099609 C 32.599219 66.199609 18.2 65.300781 4 65.300781 C 2.6 65.300781 1.5 66.400781 1.5 67.800781 C 1.5 69.200781 2.6 70.300781 4 70.300781 C 18 70.300781 32.199609 71.199609 46.099609 73.099609 C 51.999609 73.899609 56.500391 78.799609 56.900391 84.599609 L 56.699219 84.599609 L 33.5 84.599609 C 31.1 84.599609 29.199219 86.600391 29.199219 88.900391 L 29.199219 95.099609 C 29.199219 97.499609 31.1 99.400391 33.5 99.400391 L 56.599609 99.400391 C 57.999609 99.400391 59.099609 98.300391 59.099609 96.900391 L 59.099609 89.5 L 59.300781 89.5 L 61.400391 89.5 L 61.400391 121.40039 L 48 121.40039 L 48 116 L 52.900391 116 C 56.800391 116 60 112.80039 60 108.90039 L 60 104.30078 C 60 102.90078 58.9 101.80078 57.5 101.80078 C 56.1 101.80078 55 102.90078 55 104.30078 L 55 108.90039 C 55 110.10039 54.100391 111 52.900391 111 L 4 111 C 2.6 111 1.5 112.1 1.5 113.5 C 1.5 114.9 2.6 116 4 116 L 43 116 L 43 122.19922 C 43 124.59922 45.000781 126.5 47.300781 126.5 L 62.099609 126.5 C 64.499609 126.5 66.400391 124.49922 66.400391 122.19922 L 66.400391 88.900391 C 66.400391 86.500391 64.499609 84.599609 62.099609 84.599609 L 61.800781 84.599609 C 61.600781 79.499609 59.100391 75.000391 55.400391 71.900391 L 47.800781 48 C 46.300781 42.4 41.600781 38.099219 35.800781 37.199219 L 27.099609 35.800781 C 19.499609 34.600781 11.700391 34 3.9003906 34 z M 4 84.599609 C 2.6 84.599609 1.5 85.699609 1.5 87.099609 C 1.5 88.499609 2.6 89.599609 4 89.599609 L 20 89.599609 L 20 94.400391 L 4 94.400391 C 2.6 94.400391 1.5 95.500391 1.5 96.900391 C 1.5 98.300391 2.6 99.400391 4 99.400391 L 22.5 99.400391 C 23.9 99.400391 25 98.300391 25 96.900391 L 25 87.099609 C 25 85.699609 23.9 84.599609 22.5 84.599609 L 4 84.599609 z M 34.199219 89.599609 L 54.199219 89.599609 L 54.199219 94.400391 L 34.199219 94.400391 L 34.199219 89.599609 z " fill="#3592d5"/></g>
			</g>
		</svg>
	